# xmcd
#
# Track frame offsets:
#	150
#	13253
#	26684
#	39269
#	52341
#	65948
#	77027
#	89772
#	101383
#	113880
#	126249
#	138627
#	139011
#	152202
#	165372
#	176864
#	188748
#	201071
#	213348
#	226539
#	240254
#	251268
#	263538
#	276566
#	288283
#	299304
#	311014
#	321842
#
# Disc length: 4453 seconds
#
# Revision: 1
# Processed by: cddbd v1.5.1PL0 Copyright (c) Steve Scherf et al.
# Submitted via: EasyCDDAExtractor 7.0.5.4
#
DISCID=9b11631c
DTITLE=HANK WILLIAMS - HANK WILLIAMS COMPLETE HITS VOL 1
DYEAR=2004
DGENRE=Country
TTITLE0=Track 1HELP ME UNDERSTAND
TTITLE1=TOO MANY PARTIES TOO MANY PALS
TTITLE2=WHY DON'T YOU MAKE UP YOUR MEND
TTITLE3=I'VE BEEN DOWN THAT ROAD
TTITLE4=RAMBLIN' MAN
TTITLE5=NO, NO JOE
TTITLE6=EVERYTHING'S OK
TTITLE7=A MANSION ON THE HILL
TTITLE8=JUST WAITIN'
TTITLE9=MOVE IT ON OVER
TTITLE10=HONKY TONKIN'
TTITLE11=X
TTITLE12=I'M SO LENESOME I COULD CRY
TTITLE13=MIND YOUR OWN BUSINESS
TTITLE14=MY BECKETS GOT A HOLE IN IT
TTITLE15=LONG GONE LONESOME 
TTITLE16=COLD COLD EHART
TTITLE17=HOWLIN' AT THE MOON
TTITLE18=HEY GOOD LOOKIN'
TTITLE19=RAMBLIN' MAN
TTITLE20=LONESOME WHISTLE
TTITLE21=HALF AS MUCH
TTITLE22=JUMBALAYA
TTITLE23=SETTIN' THE WOODS ON FIRE
TTITLE24=I'LL NEVER GETOUT OF THIS  WORLD ALIVE
TTITLE25=YOU WIN AGAIN
TTITLE26=I CAN'T EHLP IT IF I'M STILL IN LOVE WITH YOU
TTITLE27=YOUR CHEATIN' HEART
EXTD=
EXTT0=
EXTT1=
EXTT2=
EXTT3=
EXTT4=
EXTT5=
EXTT6=
EXTT7=
EXTT8=
EXTT9=
EXTT10=
EXTT11=
EXTT12=
EXTT13=
EXTT14=
EXTT15=
EXTT16=
EXTT17=
EXTT18=
EXTT19=
EXTT20=
EXTT21=
EXTT22=
EXTT23=
EXTT24=
EXTT25=
EXTT26=
EXTT27=
PLAYORDER=
